<svg height="512pt" viewBox="0 0 512 512" width="512pt" xmlns="http://www.w3.org/2000/svg" style="fill: white;"><path d="m94.558594 127.011719c-2.355469-1.363281-4.933594-2.007813-7.476563-2.007813-5.1875 0-10.238281 2.6875-13.015625 7.496094-2 3.46875-2.535156 7.511719-1.496094 11.382812 1.035157 3.871094 3.519532 7.101563 6.988282 9.105469 3.46875 2.003907 7.511718 2.539063 11.382812 1.5 3.871094-1.039062 7.105469-3.519531 9.105469-6.988281 4.136719-7.164062 1.675781-16.355469-5.488281-20.488281zm0 0" style="fill: white;"/><path d="m312.902344 39.675781c-34.136719-25.957031-74.910156-39.675781-117.902344-39.675781-107.523438 0-195 87.476562-195 195 0 42.992188 13.71875 83.765625 39.675781 117.902344 15.535157 20.433594 35.105469 37.632812 57.152344 50.53125-3.15625-14.988282-4.828125-30.519532-4.828125-46.433594 0-124.066406 100.933594-225 225-225 15.914062 0 31.445312 1.671875 46.433594 4.828125-12.898438-22.046875-30.097656-41.617187-50.53125-57.152344zm-186.875 122.824219c-8.324219 14.417969-23.480469 22.492188-39.042969 22.492188-7.632813 0-15.355469-1.9375-22.425781-6.023438-10.410156-6.007812-17.855469-15.710938-20.96875-27.324219-3.109375-11.609375-1.511719-23.734375 4.496094-34.144531 12.40625-21.488281 39.984374-28.878906 61.472656-16.472656 21.488281 12.410156 28.878906 39.984375 16.46875 61.472656zm74.972656-79.5c-8.285156 0-15-6.714844-15-15s6.714844-15 15-15 15 6.714844 15 15-6.714844 15-15 15zm0 0" style="fill: white;"/><path d="m357.449219 247.695312c-16.707031 9.648438-22.453125 31.089844-12.804688 47.800782 9.644531 16.707031 31.089844 22.453125 47.796875 12.808594 16.710938-9.648438 22.457032-31.089844 12.808594-47.800782-9.644531-16.710937-31.089844-22.453125-47.800781-12.808594zm0 0" style="fill: white;"/><path d="m336 393c-8.269531 0-15 6.730469-15 15s6.730469 15 15 15 15-6.730469 15-15-6.730469-15-15-15zm0 0" style="fill: white;"/><path d="m246.558594 259.011719c-2.355469-1.363281-4.933594-2.007813-7.476563-2.007813-5.1875 0-10.238281 2.6875-13.015625 7.496094-2 3.46875-2.535156 7.511719-1.496094 11.382812 1.035157 3.871094 3.519532 7.101563 6.988282 9.105469 3.46875 2.003907 7.511718 2.539063 11.382812 1.5 3.867188-1.035156 7.101563-3.519531 9.105469-6.988281 4.136719-7.164062 1.671875-16.355469-5.488281-20.488281zm0 0" style="fill: white;"/><path d="m317 122c-107.523438 0-195 87.476562-195 195s87.476562 195 195 195 195-87.476562 195-195-87.476562-195-195-195zm-106 266c-8.285156 0-15-6.714844-15-15s6.714844-15 15-15 15 6.714844 15 15-6.714844 15-15 15zm67.027344-93.5c-6.007813 10.410156-15.710938 17.855469-27.324219 20.96875-3.875 1.035156-7.8125 1.550781-11.71875 1.550781-7.796875 0-15.492187-2.042969-22.425781-6.046875-10.410156-6.011718-17.855469-15.714844-20.96875-27.324218-3.109375-11.613282-1.515625-23.738282 4.496094-34.148438 12.40625-21.484375 39.980468-28.878906 61.472656-16.46875 21.488281 12.40625 28.875 39.980469 16.46875 61.46875zm57.972656 158.5c-24.8125 0-45-20.1875-45-45s20.1875-45 45-45 45 20.1875 45 45-20.1875 45-45 45zm71.441406-118.714844c-10.207031 5.894532-21.367187 8.691406-32.386718 8.691406-22.476563 0-44.367188-11.652343-56.394532-32.480468-17.917968-31.035156-7.246094-70.863282 23.789063-88.78125 31.035156-17.917969 70.863281-7.246094 88.78125 23.789062s7.25 70.863282-23.789063 88.78125zm0 0" style="fill: white;"/></svg>